<svg width="156" height="156" fill="none" xmlns="http://www.w3.org/2000/svg"><g clip-path="url(#a)"><circle cx="73.999" cy="28.332" r="28.332" fill="#1B292E"/><path d="M84.141 67.67v25.909c0 1.476-1.738 2.401-3.063 1.75-7.337-3.61-18.753-5.713-19.251-12.132V53.213c0-.282.066-.557.184-.812.753-1.624 2.316-5.588 2.155-7.257-.037-.384-.38-.612-.744-.744-2.179-.792-5.843-2.933-6.633-6.587-.474-1.76-.925-3.658 2.39-5.627.084-.05.173-.093.265-.126 1.921-.682 5.011-.9 7.145 1.305 1.019 1.053 2.847 1.31 3.35-.065.59-1.62.928-3.548.527-5.462-.319-1.525.68-3.542 2.238-3.541 6.57.002 15.295-.2 19.788-.931 1.335-.218 3.271.672 3.618 1.98 2.197 8.276 4.427 21.099 3.147 27.439-1.354 6.703-4.871 11.957-13.425 13.034-.945.12-1.69.897-1.69 1.85Z" fill="#CB7154"/><path d="M59.836 76.762c-1.93.168-7.649.774-12.37 2.387-3.009 1.028-8.424 2.494-9.146 19.145-.63 14.527-1.26 46.892-1.41 54.911a1.792 1.792 0 0 0 1.798 1.825h79.218a1.799 1.799 0 0 0 1.791-1.961l-5.598-62.176c-.546-4.099-3.61-12.334-13.716-14.184-8.145-1.49-13.009-1.33-14.59-1.212-.374.028-.716.191-1.006.428-1.29 1.052-5.37 3.996-11.258 4.574-5.888.577-10.872-2.328-12.49-3.403a1.917 1.917 0 0 0-1.223-.334Z" fill="#2C2926"/><path d="M81.405 133.028v-22.284c0-.796-.832-1.317-1.548-.971l-18.752 9.081c-.62.3-1.015.929-1.015 1.619v12.555a1.8 1.8 0 0 0 1.799 1.799h17.717a1.8 1.8 0 0 0 1.8-1.799Z" fill="#D5D4D4"/><path d="m47.983 130.787-7.136 6.61c-.367.34-.577.818-.577 1.319v11.14c0 .994.806 1.799 1.8 1.799h7.027a1.8 1.8 0 0 0 1.52-.837l6.775-10.703a2.58 2.58 0 0 0 .142-.262c.83-1.708 4.342-4.921 8.165-4.921h3.506c2.104 0 4.908 0 6.31-1.428l4.207-4.286c.702-.715 2.431-3.507 2.431-4.935l1.59-12.068c0-1.009-.35-2.872-1.542-4.282-.757-.896-1.964-.15-1.964 1.022 0 .674-.41 1.281-1.037 1.532l-16.128 6.455a1.799 1.799 0 0 1-2.468-1.67v-5.2c-1.636.952-5.188 4.429-6.31 10.715-.234 1.905 0 4.286-6.31 10Z" fill="#CB7154"/><path d="M60.089 96.238v22.284c0 .796.832 1.317 1.548.971l18.752-9.08a1.8 1.8 0 0 0 1.015-1.619V96.238c0-.993-.805-1.799-1.799-1.799H61.888c-.994 0-1.8.806-1.8 1.8Z" fill="#D5D4D4"/><circle cx="65.454" cy="99.836" r="1.799" fill="#2C2926"/><circle cx="65.454" cy="105.233" r="1.799" fill="#2C2926"/><path d="M82.5 74.572c-4.27-.498-11.228-3.014-12.39-9.975-.116-.702.664-1.195 1.323-.93 2.17.876 6.016 1.922 11.109 2.034a.917.917 0 0 1 .9.91v7.094c0 .515-.43.927-.942.867Z" fill="#822111"/><path d="M85.241 51.267c.309 3.099 3.726 2.905 5.397 2.421M90.638 39.575l3.544 5.954c.52.875.212 2.007-.68 2.497l-.99.543" stroke="#822111" stroke-width=".899" stroke-linecap="round"/></g><defs><clipPath id="a"><path fill="#fff" d="M0 0h155.601v155.601H0z"/></clipPath></defs></svg>