<svg width="156" height="156" fill="none" xmlns="http://www.w3.org/2000/svg"><circle cx="57.512" cy="72.915" r="10.489" transform="rotate(13.602 57.512 72.915)" stroke="#A7A6A2" stroke-width="1.799"/><path d="M120.619 123.793 90.06 97.342l-3.023 3.492 10.041 8.692c.343.296.784.452 1.237.438l.737-.025a1.341 1.341 0 0 1 1.37 1.247 1.313 1.313 0 0 0 1.395 1.22 1.303 1.303 0 0 1 1.395 1.207l.027.386c.032.448.24.864.58 1.157l1.024.887a1.38 1.38 0 0 0 1.228.298 1.38 1.38 0 0 1 1.7 1.471 1.38 1.38 0 0 0 .471 1.173l.624.541a1.8 1.8 0 0 0 1.818.32l.114-.043a1.8 1.8 0 0 1 1.818.321l.044.038c.411.355.626.886.58 1.426a1.693 1.693 0 0 0 1.026 1.704l2.848 1.207c.406.172.861.189 1.279.048l2.226-.754Z" fill="#BFBFBF"/><path d="M120.62 123.795 90.061 97.344l3.023-3.493 10.041 8.691c.343.297.561.711.611 1.161l.081.734a1.341 1.341 0 0 0 1.431 1.177 1.313 1.313 0 0 1 1.407 1.206 1.304 1.304 0 0 0 1.394 1.207l.386-.029a1.69 1.69 0 0 1 1.229.408l1.024.886c.337.292.513.729.471 1.174a1.38 1.38 0 0 0 1.7 1.471 1.38 1.38 0 0 1 1.228.298l.625.54c.501.434.723 1.107.578 1.753l-.027.119c-.144.646.078 1.32.578 1.753l.045.039c.41.355.966.492 1.494.368a1.695 1.695 0 0 1 1.834.772l1.602 2.645c.229.377.311.825.231 1.259l-.427 2.312Z" fill="#A7A6A2"/><path d="M64.118 97.973a1.799 1.799 0 0 1-.481-2.747l20.475-23.655a1.799 1.799 0 0 1 2.833.144l10.52 14.99a1.799 1.799 0 0 1-.112 2.21l-15.172 17.529a1.8 1.8 0 0 1-2.239.392l-15.824-8.863Z" fill="#1B292E"/><rect x="70.916" y="92.992" width="19.054" height="4.619" rx="2.31" transform="rotate(-49.121 70.916 92.992)" fill="#fff"/><rect x="63.821" y="76.159" width="2.31" height="19.27" rx="1.155" transform="rotate(-49.121 63.821 76.159)" fill="#C4C4C4"/><rect x="33.524" y="85.605" width="28.989" height="53.045" rx="1.799" transform="rotate(22.91 33.524 85.605)" fill="#2C2926"/><path d="M38.07 87.527a4.934 4.934 0 0 1 6.465-2.625l8.523 3.602a4.934 4.934 0 0 1 2.624 6.466l-17.613-7.443Z" fill="#2C2926"/><path d="M40.342 88.486a2.467 2.467 0 0 1 3.233-1.313l7.954 3.362a2.467 2.467 0 0 1 1.313 3.233l-12.5-5.282Z" fill="#fff"/><rect x="52.94" y="72.934" width="2.467" height="18.612" rx="1.234" transform="rotate(22.91 52.94 72.934)" fill="#C4C4C4"/><path d="M40.413 96.24c-.773 1.83.294 3.778 2.054 4.522 1.916.81 3.867.11 4.696-1.853.546-1.293.484-3.133-.274-3.453a.8.8 0 0 0-1.037.403c-.198.468.239 1.362-.138 2.254-.34.803-1.042 1.347-1.936 1.1l1.564-3.701c.227-.535.076-.862-.46-1.088-1.434-.58-3.678-.056-4.47 1.817Zm1.314.556c.34-.803 1.104-1.058 1.899-.827l-1.159 2.743c-.685-.368-1.06-1.158-.74-1.916Zm-11.918 24.66a3.692 3.692 0 0 0 2.02 4.665 3.692 3.692 0 0 0 4.753-1.802l.066-.156 5.032-11.907.057-.134a3.677 3.677 0 1 0-6.802-2.796l-5.126 12.13Zm2.576 3.349a2.271 2.271 0 0 1-1.208-2.981l5.145-12.175a2.252 2.252 0 0 1 2.892-1.064 2.251 2.251 0 0 1 1.252 2.816l-.038.089-.028.067a4.54 4.54 0 0 0-.028.067l-5.051 11.952a2.231 2.231 0 0 1-2.936 1.229Zm-5.118 5.091a2.363 2.363 0 0 0-1.623 1.416 2.345 2.345 0 0 0 .034 1.907.79.79 0 0 0-.985.53c-.217.513.011 1.029.59 1.274l4.612 1.949c.58.245 1.11.048 1.326-.464.217-.513-.011-1.03-.59-1.275l-3.009-1.271c-.69-.292-1.048-.811-.747-1.525.264-.624.914-.796 1.605-.504l3.008 1.271c.58.245 1.109.048 1.325-.465.217-.513-.01-1.03-.59-1.274l-3.008-1.271c-.69-.292-1.02-.879-.747-1.525.264-.625.914-.797 1.605-.505l3.008 1.272c.579.244 1.108.048 1.325-.465.217-.513-.011-1.03-.59-1.275l-3.32-1.403c-1.515-.64-2.745-.03-3.339 1.375a3 3 0 0 0 .11 2.228Zm11.723-28.238 2.938 2.555-.01.022-3.88-.325a.878.878 0 0 0-.953.517.883.883 0 0 0 .447 1.24c.178.075.375.106.56.105l5.213.153c.52.01.864-.055 1.109-.635s.062-.893-.318-1.238l-3.743-3.632a1.457 1.457 0 0 0-.465-.328c-.468-.197-.998-.001-1.195.468l-.029.066a.898.898 0 0 0 .326 1.032Zm-1.243 10.46a1.199 1.199 0 0 0 1.585-.645 1.197 1.197 0 0 0-.643-1.585 1.198 1.198 0 0 0-1.585.644 1.199 1.199 0 0 0 .643 1.586Zm-4.815 11.394a1.198 1.198 0 0 0 1.585-.644 1.199 1.199 0 0 0-.643-1.586 1.199 1.199 0 0 0-1.585.644 1.198 1.198 0 0 0 .643 1.586Z" fill="#FF4300"/><path d="m63.832 37.144 19.532-1.224a1.799 1.799 0 0 0 1.508-2.575l-3.89-8.085a1.799 1.799 0 0 0-1.961-.986l-15.296 2.95a1.755 1.755 0 0 0-.465.158c-3.46 1.755-10.35 5.595-12.458 8.05a1.472 1.472 0 0 0-.237.391c-2.155 5.06-6.505 16.255-7.65 22.875-.043.248-.038.506.11.71.643.889 2.816 1.931 4.91-.009 2.29-2.352 6.186-7.479 6.116-11.818l.167-1.355c.05-.415.245-.8.55-1.087l7.941-7.507a1.8 1.8 0 0 1 1.123-.488Z" fill="#822111"/><path d="M129.952 13.28c4.53.445 10.783.82 14.028 1.035 1.115.074 1.715 1.104 1.262 2.126l-8.501 19.138a1.799 1.799 0 0 1-2.088 1.013l-8.537-2.176a1.826 1.826 0 0 0-1.458.248c-4.559 3.002-14.581 8.673-23.311 10.59a1.79 1.79 0 0 0-.247.074c-5.164 1.938-16.185 6.24-20.476 8.509-.13.07-.244.151-.355.25-3.023 2.68-10.813 7.373-15.504 13.955-.053.074-.11.144-.174.209-.61.613-1.73 1.562-2.477 1.64-.254.026-.52-.054-.742-.18-.55-.311-1.358-1.279-1.892-3.59a1.851 1.851 0 0 1-.044-.446c.045-3.072-1.025-6.612 14.644-18.385a1.81 1.81 0 0 0 .542-.652c.706-1.462 2.524-5.221 4.487-7.688.775-.975.749-2.57-.194-3.382a23.58 23.58 0 0 1-1.706-1.611c-.925-.977-2.854-1.417-3.912-.585-3.266 2.571-7.791 5.942-10.594 7.425-.677.359-1.137 1.05-1.138 1.816 0 4.85-.675 13.044-1.894 15.808-1.14 2.584-2.555 4.885-5.075 5.115-.817.075-1.431-.643-1.491-1.462l-1.58-21.35a1.799 1.799 0 0 1 .285-1.11l16.644-25.655a1.8 1.8 0 0 1 1.488-.82l32.868-.385c6.636-.564 20.916-.084 27.142.526Z" fill="#CB7154"/></svg>