<svg width="25" height="24" viewBox="0 0 25 25" xmlns="http://www.w3.org/2000/svg"><path d="M24.5 12.0728C24.4997 9.77963 23.8424 7.53453 22.6058 5.60331C21.3692 3.67209 19.6051 2.13563 17.5225 1.17584C15.4398 0.216044 13.1257 -0.126892 10.8542 0.187628C8.58263 0.502149 6.44878 1.46095 4.70524 2.95053C2.9617 4.44011 1.68149 6.39808 1.01616 8.59265C0.350828 10.7872 0.328247 13.1265 0.951088 15.3335C1.57393 17.5405 2.81611 19.5228 4.53057 21.0457C6.24503 22.5687 8.35996 23.5685 10.625 23.9268V15.5418H7.578V12.0728H10.625V9.42884C10.625 6.42184 12.417 4.75984 15.157 4.75984C16.0571 4.77275 16.9552 4.85095 17.844 4.99384V7.94784H16.33C15.8742 7.88734 15.4131 8.01031 15.048 8.28972C14.6829 8.56913 14.4437 8.98211 14.383 9.43784C14.3658 9.56546 14.3632 9.69461 14.375 9.82284V12.0728H17.7L17.168 15.5418H14.368V23.9268C17.192 23.4818 19.7644 22.0432 21.6219 19.8699C23.4795 17.6967 24.5001 14.9317 24.5 12.0728Z"></path></svg>