<svg width="24" height="24" fill="none" xmlns="http://www.w3.org/2000/svg"><path d="M12 2.982C14.937 2.982 15.285 2.993 16.445 3.046C17.1424 3.05412 17.8332 3.18233 18.487 3.425C18.965 3.60111 19.3973 3.88237 19.752 4.248C20.1176 4.60269 20.3989 5.035 20.575 5.513C20.8177 6.16685 20.9459 6.85762 20.954 7.555C21.007 8.715 21.018 9.063 21.018 12C21.018 14.937 21.007 15.285 20.954 16.445C20.9459 17.1424 20.8177 17.8332 20.575 18.487C20.3919 18.9615 20.1116 19.3924 19.752 19.752C19.3924 20.1116 18.9615 20.3919 18.487 20.575C17.8332 20.8177 17.1424 20.9459 16.445 20.954C15.285 21.007 14.937 21.018 12 21.018C9.063 21.018 8.715 21.007 7.555 20.954C6.85762 20.9459 6.16685 20.8177 5.513 20.575C5.035 20.3989 4.60269 20.1176 4.248 19.752C3.88237 19.3973 3.60111 18.965 3.425 18.487C3.18233 17.8332 3.05412 17.1424 3.046 16.445C2.993 15.285 2.982 14.937 2.982 12C2.982 9.063 2.993 8.715 3.046 7.555C3.05412 6.85762 3.18233 6.16685 3.425 5.513C3.60111 5.035 3.88237 4.60269 4.248 4.248C4.60269 3.88237 5.035 3.60111 5.513 3.425C6.16685 3.18233 6.85762 3.05412 7.555 3.046C8.715 2.993 9.063 2.982 12 2.982ZM12 1C9.013 1 8.638 1.013 7.465 1.066C6.55258 1.08486 5.6499 1.25762 4.795 1.577C4.06355 1.86017 3.3994 2.29319 2.84521 2.84824C2.29102 3.40329 1.85904 4.06811 1.577 4.8C1.25762 5.6549 1.08486 6.55758 1.066 7.47C1.013 8.638 1 9.013 1 12C1 14.987 1.013 15.362 1.066 16.535C1.08486 17.4474 1.25762 18.3501 1.577 19.205C1.86017 19.9365 2.29319 20.6006 2.84824 21.1548C3.40329 21.709 4.06811 22.141 4.8 22.423C5.6549 22.7424 6.55758 22.9151 7.47 22.934C8.638 22.987 9.013 23 12 23C14.987 23 15.362 22.987 16.535 22.934C17.4474 22.9151 18.3501 22.7424 19.205 22.423C19.9365 22.1398 20.6006 21.7068 21.1548 21.1518C21.709 20.5967 22.141 19.9319 22.423 19.2C22.7424 18.3451 22.9151 17.4424 22.934 16.53C22.987 15.362 23 14.987 23 12C23 9.013 22.987 8.638 22.934 7.465C22.9151 6.55258 22.7424 5.6499 22.423 4.795C22.1398 4.06355 21.7068 3.3994 21.1518 2.84521C20.5967 2.29102 19.9319 1.85904 19.2 1.577C18.3451 1.25762 17.4424 1.08486 16.53 1.066C15.362 1.013 14.987 1 12 1Z" fill="#7B7974"></path><path d="M12.0001 6.35107C10.8828 6.35107 9.79063 6.68238 8.86166 7.3031C7.93269 7.92382 7.20864 8.80608 6.78108 9.8383C6.35352 10.8705 6.24165 12.0063 6.45962 13.1021C6.67759 14.1979 7.2156 15.2045 8.00563 15.9945C8.79566 16.7845 9.80221 17.3226 10.898 17.5405C11.9938 17.7585 13.1296 17.6466 14.1619 17.2191C15.1941 16.7915 16.0763 16.0675 16.697 15.1385C17.3178 14.2095 17.6491 13.1173 17.6491 12.0001C17.6491 10.5019 17.0539 9.06502 15.9945 8.00563C14.9351 6.94624 13.4983 6.35107 12.0001 6.35107ZM12.0001 15.6671C11.2748 15.6671 10.5658 15.452 9.9628 15.0491C9.35977 14.6461 8.88976 14.0734 8.61221 13.4034C8.33466 12.7333 8.26205 11.996 8.40354 11.2847C8.54503 10.5733 8.89428 9.91995 9.40712 9.40711C9.91996 8.89427 10.5734 8.54503 11.2847 8.40353C11.996 8.26204 12.7333 8.33466 13.4034 8.61221C14.0734 8.88976 14.6461 9.35976 15.0491 9.9628C15.452 10.5658 15.6671 11.2748 15.6671 12.0001C15.6671 12.9726 15.2807 13.9053 14.593 14.593C13.9053 15.2807 12.9726 15.6671 12.0001 15.6671Z" fill="#7B7974"></path><path d="M17.872 7.44811C18.601 7.44811 19.192 6.85712 19.192 6.12811C19.192 5.39909 18.601 4.80811 17.872 4.80811C17.143 4.80811 16.552 5.39909 16.552 6.12811C16.552 6.85712 17.143 7.44811 17.872 7.44811Z" fill="#7B7974"></path></svg>