<svg width="156" height="156" fill="none" xmlns="http://www.w3.org/2000/svg"><path d="M118.081 12.677a1.886 1.886 0 0 0-1.971-1.797l-89.485 4.14a1.886 1.886 0 0 0-1.797 1.971l.493 10.652a1.886 1.886 0 0 1-.571 1.441l-5.235 5.077c-.387.376-.595.9-.57 1.44l1.98 43.284c.026.54.281 1.044.702 1.384l5.68 4.571c.422.339.677.842.702 1.382l2.63 56.39a1.886 1.886 0 0 0 1.971 1.796l89.486-4.14a1.886 1.886 0 0 0 1.797-1.971l-5.812-125.62Z" fill="#FF6933"/><rect x="47.289" y="11.504" width="90.906" height="119.181" rx="1.886" transform="rotate(4.068 47.29 11.504)" fill="#2C2926"/><rect x="37.575" y="23.143" width="85.393" height="107.43" rx="1.886" fill="#FFF5F0"/><rect x="37.575" y="23.143" width="85.393" height="107.43" rx="1.886" fill="#FFF5F0"/><path d="M47.799 116.769h39.69M47.799 103.565l51.717-1.2M47.799 90.36h64.345M47.799 77.156h64.345M47.799 64.554h64.345" stroke="#999791" stroke-opacity=".16" stroke-width="2.217" stroke-linecap="round"/><path d="m95.307 110.737 6.559 7.854c.905 1.085 2.638.825 3.186-.477l8.897-21.152" stroke="#FD5003" stroke-width="2.217" stroke-linecap="round"/><path d="M107.268 37.547c-2.837 0-4.809 2.401-4.809 5.035 0 2.868 2.006 4.968 5.051 4.968 2.006 0 4.393-1.067 4.393-2.2 0-.6-.484-1.067-1.107-1.1-.726 0-1.66 1.033-3.044 1.033-1.246 0-2.353-.6-2.526-1.867h5.743c.83 0 1.176-.367 1.176-1.167-.034-2.134-1.972-4.702-4.877-4.702Zm0 1.968c1.245 0 2.006.833 2.144 1.967h-4.255c.104-1.067.934-1.967 2.111-1.967Zm-39.092-1.901c-2.802.133-5.016 2.367-5.016 5.068 0 2.7 2.214 4.935 5.016 5.068h18.923c2.906 0 5.258-2.267 5.258-5.068 0-2.8-2.352-5.068-5.258-5.068H68.175ZM65.2 42.682c0-1.734 1.453-3.134 3.252-3.134H87.34c1.695.1 3.01 1.467 3.01 3.1 0 1.635-1.315 3.002-3.01 3.102H68.453c-1.8.033-3.252-1.367-3.252-3.068Zm-9.548-3.768a3.423 3.423 0 0 0-2.768-1.3c-.968 0-1.868.4-2.49 1.067-.07-.6-.623-1.034-1.246-.967-.796 0-1.35.567-1.35 1.434v6.902c0 .867.554 1.434 1.35 1.434s1.35-.567 1.35-1.434v-4.502c0-1.033.483-1.767 1.59-1.767.97 0 1.557.734 1.557 1.767v4.502c0 .867.554 1.434 1.35 1.434.795 0 1.349-.567 1.349-1.434v-4.502c0-1.033.588-1.767 1.591-1.767.969 0 1.557.734 1.557 1.767v4.502c0 .867.553 1.434 1.349 1.434.796 0 1.35-.567 1.35-1.434v-4.968c0-2.268-1.489-3.501-3.668-3.501a4.35 4.35 0 0 0-2.871 1.333Zm43.692-.266-1.73 5.101h-.034l-1.73-5.101a1.248 1.248 0 0 0-1.21-.934c-.727-.067-1.35.467-1.384 1.134v.1c0 .267.069.533.173.767l2.698 6.701c.277.667.554 1.068 1.453 1.068.9 0 1.21-.4 1.453-1.068l2.698-6.701c.104-.234.173-.5.173-.767 0-.7-.553-1.267-1.28-1.267h-.103a1.27 1.27 0 0 0-1.177.967Zm-14.46 4.034c0 .934.761 1.667 1.73 1.667.968 0 1.73-.733 1.73-1.667s-.762-1.667-1.73-1.667c-.969 0-1.73.733-1.73 1.667Zm-17.678 0c0 .934.761 1.667 1.73 1.667s1.73-.733 1.73-1.667-.761-1.667-1.73-1.667-1.73.733-1.73 1.667Z" fill="#FF4300"/></svg>